<svg width="37" height="37" viewBox="0 0 37 37" fill="none" xmlns="http://www.w3.org/2000/svg">
<rect width="37" height="37" rx="10" fill="#EEF7FF"/>
<path d="M24.6667 14.8266C24.6672 14.7389 24.6504 14.6519 24.6172 14.5707C24.584 14.4894 24.5351 14.4156 24.4733 14.3533L21.6467 11.5266C21.5844 11.4648 21.5105 11.4159 21.4293 11.3827C21.348 11.3496 21.2611 11.3328 21.1733 11.3333C21.0856 11.3328 20.9986 11.3496 20.9174 11.3827C20.8362 11.4159 20.7623 11.4648 20.7 11.5266L18.8133 13.4133L11.5267 20.6999C11.4649 20.7622 11.416 20.8361 11.3828 20.9173C11.3496 20.9985 11.3328 21.0855 11.3333 21.1733V23.9999C11.3333 24.1767 11.4036 24.3463 11.5286 24.4713C11.6536 24.5964 11.8232 24.6666 12 24.6666H14.8267C14.9199 24.6717 15.0133 24.6571 15.1005 24.6238C15.1878 24.5905 15.2671 24.5392 15.3333 24.4733L22.58 17.1866L24.4733 15.3333C24.5342 15.2687 24.5838 15.1943 24.62 15.1133C24.6264 15.0601 24.6264 15.0064 24.62 14.9533C24.6231 14.9222 24.6231 14.891 24.62 14.8599L24.6667 14.8266ZM14.5533 23.3333H12.6667V21.4466L19.2867 14.8266L21.1733 16.7133L14.5533 23.3333ZM22.1133 15.7733L20.2267 13.8866L21.1733 12.9466L23.0533 14.8266L22.1133 15.7733Z" fill="#072182"/>
</svg>
