<svg width="24" height="24" viewBox="0 0 24 24" fill="none" xmlns="http://www.w3.org/2000/svg">
<path d="M18.08 7.00001C17.9486 6.98908 17.8163 7.00424 17.6908 7.04462C17.5653 7.08501 17.449 7.14982 17.3486 7.23532C17.2482 7.32083 17.1657 7.42535 17.1059 7.54285C17.0461 7.66036 17.0101 7.78854 17 7.92001L16.65 12.47C16.1876 12.3269 15.7728 12.0607 15.45 11.7C15.3562 11.5936 15.2407 11.5084 15.1114 11.45C14.9821 11.3916 14.8419 11.3615 14.7 11.3615C14.5581 11.3615 14.4179 11.3916 14.2886 11.45C14.1592 11.5084 14.0438 11.5936 13.95 11.7C13.7018 11.9697 13.4004 12.185 13.0647 12.3323C12.7291 12.4795 12.3665 12.5556 12 12.5556C11.6335 12.5556 11.2709 12.4795 10.9353 12.3323C10.5996 12.185 10.2982 11.9697 10.05 11.7C9.95615 11.5936 9.84075 11.5084 9.71143 11.45C9.58212 11.3916 9.44187 11.3615 9.3 11.3615C9.15812 11.3615 9.01787 11.3916 8.88856 11.45C8.75925 11.5084 8.64384 11.5936 8.55 11.7C8.22622 12.0596 7.81176 12.3255 7.35 12.47L7 7.92001C6.9899 7.78854 6.95391 7.66036 6.89408 7.54285C6.83425 7.42535 6.75178 7.32083 6.6514 7.23532C6.55102 7.14982 6.43472 7.08501 6.3092 7.04462C6.18367 7.00424 6.0514 6.98908 5.92 7.00001C5.78852 7.01011 5.66034 7.0461 5.54284 7.10593C5.42533 7.16576 5.32082 7.24823 5.23531 7.34861C5.1498 7.44899 5.08499 7.56529 5.04461 7.69081C5.00422 7.81633 4.98906 7.94861 5 8.08001L5.86 19.23C5.91806 19.9851 6.25958 20.6904 6.81602 21.2042C7.37246 21.7179 8.10264 22.0022 8.86 22H15.16C15.9174 22.0022 16.6475 21.7179 17.204 21.2042C17.7604 20.6904 18.1019 19.9851 18.16 19.23L19 8.08001C19.0109 7.94861 18.9958 7.81633 18.9554 7.69081C18.915 7.56529 18.8502 7.44899 18.7647 7.34861C18.6792 7.24823 18.5747 7.16576 18.4572 7.10593C18.3396 7.0461 18.2115 7.01011 18.08 7.00001ZM16.14 19.08C16.1198 19.3311 16.0057 19.5654 15.8203 19.7359C15.6349 19.9065 15.3919 20.0008 15.14 20H8.85C8.59808 20.0008 8.35513 19.9065 8.16974 19.7359C7.98434 19.5654 7.87015 19.3311 7.85 19.08L7.5 14.5C8.14834 14.3645 8.76135 14.0955 9.3 13.71C10.0887 14.2707 11.0323 14.5719 12 14.5719C12.9677 14.5719 13.9113 14.2707 14.7 13.71C15.2386 14.0955 15.8517 14.3645 16.5 14.5L16.14 19.08ZM12 10C12.8611 9.99738 13.6863 9.65412 14.2952 9.0452C14.9041 8.43627 15.2474 7.61115 15.25 6.75001C15.25 4.00001 12.67 2.24001 12.56 2.17001C12.3946 2.05824 12.1996 1.9985 12 1.9985C11.8004 1.9985 11.6054 2.05824 11.44 2.17001C11.33 2.25001 8.75 4.00001 8.75 6.75001C8.75263 7.61115 9.09589 8.43627 9.70481 9.0452C10.3137 9.65412 11.1389 9.99738 12 10ZM12 4.30001C12.7236 4.91973 13.173 5.80039 13.25 6.75001C13.25 7.08153 13.1183 7.39948 12.8839 7.6339C12.6495 7.86832 12.3315 8.00001 12 8.00001C11.6685 8.00001 11.3505 7.86832 11.1161 7.6339C10.8817 7.39948 10.75 7.08153 10.75 6.75001C10.8323 5.80189 11.2806 4.9231 12 4.30001Z" fill="#8F95B5"/>
</svg>
