<svg width="37" height="37" viewBox="0 0 37 37" fill="none" xmlns="http://www.w3.org/2000/svg">
<rect width="37" height="37" rx="10" fill="#FF5454"/>
<path d="M16.6667 21.9999C16.8435 21.9999 17.013 21.9297 17.1381 21.8047C17.2631 21.6796 17.3333 21.5101 17.3333 21.3333V17.3333C17.3333 17.1564 17.2631 16.9869 17.1381 16.8618C17.013 16.7368 16.8435 16.6666 16.6667 16.6666C16.4899 16.6666 16.3203 16.7368 16.1953 16.8618C16.0702 16.9869 16 17.1564 16 17.3333V21.3333C16 21.5101 16.0702 21.6796 16.1953 21.8047C16.3203 21.9297 16.4899 21.9999 16.6667 21.9999ZM23.3333 13.9999H20.6667V13.3333C20.6667 12.8028 20.456 12.2941 20.0809 11.919C19.7058 11.544 19.1971 11.3333 18.6667 11.3333H17.3333C16.8029 11.3333 16.2942 11.544 15.9191 11.919C15.544 12.2941 15.3333 12.8028 15.3333 13.3333V13.9999H12.6667C12.4899 13.9999 12.3203 14.0702 12.1953 14.1952C12.0702 14.3202 12 14.4898 12 14.6666C12 14.8434 12.0702 15.013 12.1953 15.138C12.3203 15.263 12.4899 15.3333 12.6667 15.3333H13.3333V22.6666C13.3333 23.197 13.544 23.7057 13.9191 24.0808C14.2942 24.4559 14.8029 24.6666 15.3333 24.6666H20.6667C21.1971 24.6666 21.7058 24.4559 22.0809 24.0808C22.456 23.7057 22.6667 23.197 22.6667 22.6666V15.3333H23.3333C23.5101 15.3333 23.6797 15.263 23.8047 15.138C23.9298 15.013 24 14.8434 24 14.6666C24 14.4898 23.9298 14.3202 23.8047 14.1952C23.6797 14.0702 23.5101 13.9999 23.3333 13.9999ZM16.6667 13.3333C16.6667 13.1564 16.7369 12.9869 16.8619 12.8618C16.987 12.7368 17.1565 12.6666 17.3333 12.6666H18.6667C18.8435 12.6666 19.013 12.7368 19.1381 12.8618C19.2631 12.9869 19.3333 13.1564 19.3333 13.3333V13.9999H16.6667V13.3333ZM21.3333 22.6666C21.3333 22.8434 21.2631 23.013 21.1381 23.138C21.013 23.263 20.8435 23.3333 20.6667 23.3333H15.3333C15.1565 23.3333 14.987 23.263 14.8619 23.138C14.7369 23.013 14.6667 22.8434 14.6667 22.6666V15.3333H21.3333V22.6666ZM19.3333 21.9999C19.5101 21.9999 19.6797 21.9297 19.8047 21.8047C19.9298 21.6796 20 21.5101 20 21.3333V17.3333C20 17.1564 19.9298 16.9869 19.8047 16.8618C19.6797 16.7368 19.5101 16.6666 19.3333 16.6666C19.1565 16.6666 18.987 16.7368 18.8619 16.8618C18.7369 16.9869 18.6667 17.1564 18.6667 17.3333V21.3333C18.6667 21.5101 18.7369 21.6796 18.8619 21.8047C18.987 21.9297 19.1565 21.9999 19.3333 21.9999Z" fill="white"/>
</svg>
