<svg width="37" height="37" viewBox="0 0 37 37" fill="none" xmlns="http://www.w3.org/2000/svg">
<rect width="37" height="37" rx="10" fill="#EEF7FF"/>
<path d="M24.5917 15.0082C24.5142 14.9301 24.422 14.8681 24.3205 14.8258C24.2189 14.7835 24.11 14.7617 24 14.7617C23.89 14.7617 23.7811 14.7835 23.6795 14.8258C23.578 14.8681 23.4858 14.9301 23.4083 15.0082L17.2 21.2249L14.5917 18.6082C14.5112 18.5305 14.4163 18.4694 14.3122 18.4284C14.2082 18.3874 14.0971 18.3673 13.9853 18.3692C13.8735 18.3712 13.7631 18.3951 13.6606 18.4397C13.558 18.4843 13.4652 18.5486 13.3875 18.6291C13.3098 18.7095 13.2487 18.8044 13.2077 18.9085C13.1667 19.0125 13.1466 19.1236 13.1485 19.2354C13.1505 19.3473 13.1744 19.4576 13.219 19.5602C13.2636 19.6627 13.3279 19.7555 13.4083 19.8332L16.6083 23.0332C16.6858 23.1113 16.778 23.1733 16.8795 23.2156C16.9811 23.2579 17.09 23.2797 17.2 23.2797C17.31 23.2797 17.4189 23.2579 17.5205 23.2156C17.622 23.1733 17.7142 23.1113 17.7917 23.0332L24.5917 16.2332C24.6763 16.1552 24.7438 16.0605 24.7899 15.9551C24.8361 15.8496 24.86 15.7358 24.86 15.6207C24.86 15.5056 24.8361 15.3918 24.7899 15.2864C24.7438 15.181 24.6763 15.0863 24.5917 15.0082V15.0082Z" fill="black"/>
</svg>
