<svg width="20" height="20" viewBox="0 0 20 20" fill="none" xmlns="http://www.w3.org/2000/svg">
<path d="M17.1664 9.22214C16.9601 9.22214 16.7623 9.3041 16.6164 9.44998C16.4705 9.59586 16.3885 9.79372 16.3885 10C16.3978 11.457 15.8987 12.8716 14.9772 14.0002C14.0557 15.1288 12.7695 15.9008 11.3401 16.1831C9.91067 16.4654 8.42756 16.2404 7.14618 15.5469C5.86479 14.8534 4.86536 13.7347 4.32 12.3836C3.77465 11.0325 3.71751 9.53354 4.15843 8.14484C4.59936 6.75614 5.51074 5.56466 6.73561 4.77561C7.96048 3.98657 9.42217 3.64935 10.8689 3.82204C12.3157 3.99473 13.6569 4.66651 14.6617 5.72169H12.7947C12.5884 5.72169 12.3906 5.80364 12.2447 5.94952C12.0988 6.0954 12.0169 6.29326 12.0169 6.49957C12.0169 6.70587 12.0988 6.90373 12.2447 7.04961C12.3906 7.19549 12.5884 7.27744 12.7947 7.27744H16.3185C16.5248 7.27744 16.7227 7.19549 16.8686 7.04961C17.0145 6.90373 17.0964 6.70587 17.0964 6.49957V2.99911C17.0964 2.7928 17.0145 2.59495 16.8686 2.44907C16.7227 2.30319 16.5248 2.22123 16.3185 2.22123C16.1122 2.22123 15.9144 2.30319 15.7685 2.44907C15.6226 2.59495 15.5407 2.7928 15.5407 2.99911V4.37596C14.2452 3.13762 12.562 2.38455 10.7754 2.24405C8.9888 2.10354 7.2085 2.58423 5.73543 3.60484C4.26235 4.62545 3.18685 6.12339 2.69074 7.84544C2.19462 9.5675 2.30832 11.408 3.01261 13.0559C3.7169 14.7038 4.96858 16.058 6.55607 16.8896C8.14356 17.7211 9.96949 17.979 11.7252 17.6197C13.4809 17.2604 15.0587 16.3059 16.1918 14.9175C17.325 13.5292 17.944 11.7921 17.9443 10C17.9443 9.79372 17.8623 9.59586 17.7165 9.44998C17.5706 9.3041 17.3727 9.22214 17.1664 9.22214Z" fill="#707EAE"/>
</svg>
