<svg width="27" height="22" viewBox="0 0 27 22" fill="none" xmlns="http://www.w3.org/2000/svg">
<path d="M13.0361 8.4688L6.2439 3.79442C5.87637 3.53974 5.45921 3.40633 5.0348 3.40773C4.61039 3.40912 4.19385 3.54529 3.82749 3.80238C3.46113 4.05948 3.15799 4.42835 2.94888 4.87153C2.73976 5.31471 2.63211 5.81641 2.63687 6.32567V15.7082C2.63687 16.4735 2.89022 17.2075 3.34119 17.7486C3.79215 18.2898 4.40379 18.5938 5.04156 18.5938C5.46374 18.5929 5.87834 18.4591 6.2439 18.2057L13.0361 13.5313C13.4011 13.2778 13.7041 12.9136 13.9147 12.4753C14.1254 12.0369 14.2362 11.5398 14.2362 11.0338C14.2362 10.5278 14.1254 10.0307 13.9147 9.5923C13.7041 9.15395 13.4011 8.78977 13.0361 8.5363V8.4688ZM12.333 12.0041L5.54078 16.746C5.38854 16.8495 5.21654 16.9039 5.04156 16.9039C4.86657 16.9039 4.69458 16.8495 4.54234 16.746C4.39053 16.6408 4.26448 16.4895 4.17684 16.3073C4.08921 16.1252 4.04309 15.9185 4.04312 15.7082V6.29192C4.04309 6.08157 4.08921 5.87492 4.17684 5.69274C4.26448 5.51056 4.39053 5.35928 4.54234 5.25411C4.6952 5.15215 4.86669 5.09708 5.04156 5.09379C5.21631 5.0981 5.38759 5.1531 5.54078 5.25411L12.333 9.96223C12.4848 10.0674 12.6109 10.2186 12.6986 10.4008C12.7863 10.583 12.8325 10.7897 12.8325 11C12.8325 11.2104 12.7863 11.4171 12.6986 11.5993C12.6109 11.7815 12.4848 11.9327 12.333 12.0379V12.0041Z" fill="#707EAE"/>
<path d="M21.375 2.56256C20.8156 2.56256 20.279 2.82925 19.8834 3.30395C19.4879 3.77865 19.2656 4.42248 19.2656 5.09381V16.9063C19.2656 17.5776 19.4879 18.2215 19.8834 18.6962C20.279 19.1709 20.8156 19.4376 21.375 19.4376C21.9344 19.4376 22.471 19.1709 22.8666 18.6962C23.2621 18.2215 23.4844 17.5776 23.4844 16.9063V5.09381C23.4844 4.42248 23.2621 3.77865 22.8666 3.30395C22.471 2.82925 21.9344 2.56256 21.375 2.56256ZM22.0781 16.9063C22.0781 17.1301 22.004 17.3447 21.8722 17.5029C21.7403 17.6612 21.5615 17.7501 21.375 17.7501C21.1885 17.7501 21.0097 17.6612 20.8778 17.5029C20.746 17.3447 20.6719 17.1301 20.6719 16.9063V5.09381C20.6719 4.87003 20.746 4.65542 20.8778 4.49719C21.0097 4.33896 21.1885 4.25006 21.375 4.25006C21.5615 4.25006 21.7403 4.33896 21.8722 4.49719C22.004 4.65542 22.0781 4.87003 22.0781 5.09381V16.9063ZM15.75 2.56256C15.1906 2.56256 14.654 2.82925 14.2584 3.30395C13.8629 3.77865 13.6406 4.42248 13.6406 5.09381V16.9063C13.6406 17.5776 13.8629 18.2215 14.2584 18.6962C14.654 19.1709 15.1906 19.4376 15.75 19.4376C16.3094 19.4376 16.846 19.1709 17.2416 18.6962C17.6371 18.2215 17.8594 17.5776 17.8594 16.9063V5.09381C17.8594 4.42248 17.6371 3.77865 17.2416 3.30395C16.846 2.82925 16.3094 2.56256 15.75 2.56256ZM16.4531 16.9063C16.4531 17.1301 16.379 17.3447 16.2472 17.5029C16.1153 17.6612 15.9365 17.7501 15.75 17.7501C15.5635 17.7501 15.3847 17.6612 15.2528 17.5029C15.121 17.3447 15.0469 17.1301 15.0469 16.9063V5.09381C15.0469 4.87003 15.121 4.65542 15.2528 4.49719C15.3847 4.33896 15.5635 4.25006 15.75 4.25006C15.9365 4.25006 16.1153 4.33896 16.2472 4.49719C16.379 4.65542 16.4531 4.87003 16.4531 5.09381V16.9063Z" fill="#707EAE"/>
<path d="M3.5 6.20006L4.75 5.00006H6L13.5 10.6001V11.4001L5.58333 17.0001H4.33333L3.91667 15.8001L3.5 6.20006Z" fill="#707EAE"/>
</svg>
