<svg width="73" height="34" viewBox="0 0 73 34" fill="none" xmlns="http://www.w3.org/2000/svg">
<rect width="72" height="30" rx="15" fill="#0062ED"/>
<g filter="url(#filter0_d_507_587)">
<circle cx="58" cy="15" r="11" fill="url(#paint0_linear_507_587)"/>
</g>
<path d="M11.3355 19H9.70656L12.6948 10.5156H14.5698L17.5698 19H15.9409L15.2378 16.9023H12.0386L11.3355 19ZM12.4487 15.6719H14.8277L13.6675 12.25H13.5972L12.4487 15.6719ZM19.8611 10.5156V19H18.3377V10.5156H19.8611ZM33.0569 17.6875V18.7539H23.3772V17.6875H27.5491V15.3789H24.4436V10.2695H31.9436V15.3789H28.8381V17.6875H33.0569ZM25.7209 11.3125V14.3594H30.6545V11.3125H25.7209ZM42.1098 14.418V15.4609H34.6802V10.375H42.0278V11.4297H35.9692V14.418H42.1098ZM43.188 17.6172V18.6953H33.5083V17.6172H43.188Z" fill="white"/>
<defs>
<filter id="filter0_d_507_587" x="43" y="4" width="30" height="30" filterUnits="userSpaceOnUse" color-interpolation-filters="sRGB">
<feFlood flood-opacity="0" result="BackgroundImageFix"/>
<feColorMatrix in="SourceAlpha" type="matrix" values="0 0 0 0 0 0 0 0 0 0 0 0 0 0 0 0 0 0 127 0" result="hardAlpha"/>
<feOffset dy="4"/>
<feGaussianBlur stdDeviation="2"/>
<feComposite in2="hardAlpha" operator="out"/>
<feColorMatrix type="matrix" values="0 0 0 0 0 0 0 0 0 0 0 0 0 0 0 0 0 0 0.25 0"/>
<feBlend mode="normal" in2="BackgroundImageFix" result="effect1_dropShadow_507_587"/>
<feBlend mode="normal" in="SourceGraphic" in2="effect1_dropShadow_507_587" result="shape"/>
</filter>
<linearGradient id="paint0_linear_507_587" x1="15374.1" y1="2068.35" x2="17363.6" y2="2068.35" gradientUnits="userSpaceOnUse">
<stop stop-color="white"/>
<stop offset="1" stop-color="#E8E9EA"/>
</linearGradient>
</defs>
</svg>
