<svg width="100" height="38" viewBox="0 0 100 38" fill="none" xmlns="http://www.w3.org/2000/svg">
<rect y="0.5" width="100" height="37" rx="12" fill="#329CFF"/>
<path d="M28 18.2133C27.8232 18.2133 27.6536 18.2836 27.5286 18.4086C27.4036 18.5336 27.3333 18.7032 27.3333 18.88V23.6666C27.3333 23.8435 27.2631 24.013 27.1381 24.1381C27.013 24.2631 26.8435 24.3333 26.6666 24.3333H19.3333C19.1565 24.3333 18.9869 24.2631 18.8619 24.1381C18.7369 24.013 18.6666 23.8435 18.6666 23.6666V16.3333C18.6666 16.1565 18.7369 15.9869 18.8619 15.8619C18.9869 15.7369 19.1565 15.6666 19.3333 15.6666H24.12C24.2968 15.6666 24.4664 15.5964 24.5914 15.4714C24.7164 15.3464 24.7866 15.1768 24.7866 15C24.7866 14.8232 24.7164 14.6536 24.5914 14.5286C24.4664 14.4036 24.2968 14.3333 24.12 14.3333H19.3333C18.8029 14.3333 18.2942 14.544 17.9191 14.9191C17.544 15.2942 17.3333 15.8029 17.3333 16.3333V23.6666C17.3333 24.1971 17.544 24.7058 17.9191 25.0809C18.2942 25.4559 18.8029 25.6666 19.3333 25.6666H26.6666C27.1971 25.6666 27.7058 25.4559 28.0809 25.0809C28.4559 24.7058 28.6666 24.1971 28.6666 23.6666V18.88C28.6666 18.7032 28.5964 18.5336 28.4714 18.4086C28.3464 18.2836 28.1768 18.2133 28 18.2133ZM30.6133 12.7466C30.5457 12.5837 30.4162 12.4543 30.2533 12.3866C30.1732 12.3525 30.0871 12.3344 30 12.3333H26C25.8232 12.3333 25.6536 12.4036 25.5286 12.5286C25.4036 12.6536 25.3333 12.8232 25.3333 13C25.3333 13.1768 25.4036 13.3464 25.5286 13.4714C25.6536 13.5964 25.8232 13.6666 26 13.6666H28.3933L21.5266 20.5266C21.4642 20.5886 21.4146 20.6624 21.3807 20.7436C21.3469 20.8248 21.3294 20.912 21.3294 21C21.3294 21.088 21.3469 21.1751 21.3807 21.2564C21.4146 21.3376 21.4642 21.4113 21.5266 21.4733C21.5886 21.5358 21.6624 21.5854 21.7436 21.6192C21.8248 21.6531 21.912 21.6705 22 21.6705C22.088 21.6705 22.1751 21.6531 22.2564 21.6192C22.3376 21.5854 22.4113 21.5358 22.4733 21.4733L29.3333 14.6066V17C29.3333 17.1768 29.4036 17.3464 29.5286 17.4714C29.6536 17.5964 29.8232 17.6666 30 17.6666C30.1768 17.6666 30.3464 17.5964 30.4714 17.4714C30.5964 17.3464 30.6666 17.1768 30.6666 17V13C30.6656 12.9129 30.6475 12.8268 30.6133 12.7466V12.7466Z" fill="white"/>
<path d="M46.0898 12.8574V17.5605H47.9902V18.8457H46.0898V25.2168H44.5723V12.8574H46.0898ZM38.3516 13.8691V16.959H41.2637V13.8691H42.7812V22.3184H36.8477V13.8691H38.3516ZM38.3516 21.0742H41.2637V18.1484H38.3516V21.0742ZM59.5227 22.5234V23.7812H48.2298V22.5234H53.097V20.5137H49.5696V16.4668H56.679V14.9355H49.5423V13.7051H58.1829V17.6699H51.0872V19.2695H58.47V20.5137H54.6009V22.5234H59.5227ZM69.7291 12.8574V17.6836H71.5611V18.9551H69.7291V25.1895H68.2115V12.8574H69.7291ZM66.4615 14.1426C66.4615 17.7793 64.9576 20.9648 60.8423 22.9883L59.981 21.8125C62.9888 20.3154 64.6158 18.21 64.9302 15.4004H60.6509V14.1426H66.4615ZM82.1912 12.8574V25.2168H80.66V12.8574H82.1912ZM78.4998 14.1699C78.4998 17.8477 77.078 20.9785 72.744 23.0293L71.951 21.8125C75.1844 20.2744 76.6883 18.1826 76.9549 15.373H72.5799V14.1699H78.4998Z" fill="white"/>
</svg>
