<svg width="37" height="38" viewBox="0 0 37 38" fill="none" xmlns="http://www.w3.org/2000/svg">
<rect y="0.5" width="37" height="37" rx="10" fill="#EEF7FF"/>
<path d="M24.6667 15.3267C24.6672 15.2389 24.6503 15.1519 24.6172 15.0707C24.584 14.9895 24.5351 14.9156 24.4733 14.8533L21.6467 12.0267C21.5844 11.9649 21.5105 11.916 21.4293 11.8828C21.348 11.8496 21.2611 11.8328 21.1733 11.8333C21.0856 11.8328 20.9986 11.8496 20.9174 11.8828C20.8362 11.916 20.7623 11.9649 20.7 12.0267L18.8133 13.9133L11.5267 21.2C11.4649 21.2623 11.416 21.3362 11.3828 21.4174C11.3496 21.4986 11.3328 21.5856 11.3333 21.6733V24.5C11.3333 24.6768 11.4036 24.8464 11.5286 24.9714C11.6536 25.0964 11.8232 25.1667 12 25.1667H14.8267C14.9199 25.1717 15.0133 25.1571 15.1005 25.1238C15.1878 25.0905 15.2671 25.0393 15.3333 24.9733L22.58 17.6867L24.4733 15.8333C24.5342 15.7687 24.5838 15.6943 24.62 15.6133C24.6264 15.5602 24.6264 15.5065 24.62 15.4533C24.6231 15.4223 24.6231 15.391 24.62 15.36L24.6667 15.3267ZM14.5533 23.8333H12.6667V21.9467L19.2867 15.3267L21.1733 17.2133L14.5533 23.8333ZM22.1133 16.2733L20.2267 14.3867L21.1733 13.4467L23.0533 15.3267L22.1133 16.2733Z" fill="#072182"/>
</svg>
