<svg width="37" height="38" viewBox="0 0 37 38" fill="none" xmlns="http://www.w3.org/2000/svg">
<rect y="0.5" width="37" height="37" rx="10" fill="#FF5454"/>
<path d="M16.6667 22.5C16.8435 22.5 17.013 22.4297 17.1381 22.3047C17.2631 22.1797 17.3333 22.0101 17.3333 21.8333V17.8333C17.3333 17.6565 17.2631 17.4869 17.1381 17.3619C17.013 17.2369 16.8435 17.1666 16.6667 17.1666C16.4899 17.1666 16.3203 17.2369 16.1953 17.3619C16.0702 17.4869 16 17.6565 16 17.8333V21.8333C16 22.0101 16.0702 22.1797 16.1953 22.3047C16.3203 22.4297 16.4899 22.5 16.6667 22.5ZM23.3333 14.5H20.6667V13.8333C20.6667 13.3029 20.456 12.7942 20.0809 12.4191C19.7058 12.044 19.1971 11.8333 18.6667 11.8333H17.3333C16.8029 11.8333 16.2942 12.044 15.9191 12.4191C15.544 12.7942 15.3333 13.3029 15.3333 13.8333V14.5H12.6667C12.4899 14.5 12.3203 14.5702 12.1953 14.6952C12.0702 14.8203 12 14.9898 12 15.1666C12 15.3435 12.0702 15.513 12.1953 15.6381C12.3203 15.7631 12.4899 15.8333 12.6667 15.8333H13.3333V23.1666C13.3333 23.6971 13.544 24.2058 13.9191 24.5809C14.2942 24.9559 14.8029 25.1666 15.3333 25.1666H20.6667C21.1971 25.1666 21.7058 24.9559 22.0809 24.5809C22.456 24.2058 22.6667 23.6971 22.6667 23.1666V15.8333H23.3333C23.5101 15.8333 23.6797 15.7631 23.8047 15.6381C23.9298 15.513 24 15.3435 24 15.1666C24 14.9898 23.9298 14.8203 23.8047 14.6952C23.6797 14.5702 23.5101 14.5 23.3333 14.5ZM16.6667 13.8333C16.6667 13.6565 16.7369 13.4869 16.8619 13.3619C16.987 13.2369 17.1565 13.1666 17.3333 13.1666H18.6667C18.8435 13.1666 19.013 13.2369 19.1381 13.3619C19.2631 13.4869 19.3333 13.6565 19.3333 13.8333V14.5H16.6667V13.8333ZM21.3333 23.1666C21.3333 23.3435 21.2631 23.513 21.1381 23.6381C21.013 23.7631 20.8435 23.8333 20.6667 23.8333H15.3333C15.1565 23.8333 14.987 23.7631 14.8619 23.6381C14.7369 23.513 14.6667 23.3435 14.6667 23.1666V15.8333H21.3333V23.1666ZM19.3333 22.5C19.5101 22.5 19.6797 22.4297 19.8047 22.3047C19.9298 22.1797 20 22.0101 20 21.8333V17.8333C20 17.6565 19.9298 17.4869 19.8047 17.3619C19.6797 17.2369 19.5101 17.1666 19.3333 17.1666C19.1565 17.1666 18.987 17.2369 18.8619 17.3619C18.7369 17.4869 18.6667 17.6565 18.6667 17.8333V21.8333C18.6667 22.0101 18.7369 22.1797 18.8619 22.3047C18.987 22.4297 19.1565 22.5 19.3333 22.5Z" fill="white"/>
</svg>
