<svg width="30" height="30" viewBox="0 0 30 30" fill="none" xmlns="http://www.w3.org/2000/svg">
<rect width="30" height="30" rx="10" fill="#EEF7FF"/>
<path d="M20.875 15.5C20.6872 15.5 20.507 15.5746 20.3742 15.7074C20.2413 15.8403 20.1667 16.0204 20.1667 16.2083V20.4583C20.1667 20.6462 20.0921 20.8263 19.9592 20.9592C19.8264 21.092 19.6462 21.1666 19.4584 21.1666H9.54169C9.35383 21.1666 9.17366 21.092 9.04082 20.9592C8.90798 20.8263 8.83335 20.6462 8.83335 20.4583V10.5416C8.83335 10.3538 8.90798 10.1736 9.04082 10.0408C9.17366 9.90794 9.35383 9.83331 9.54169 9.83331H13.7917C13.9795 9.83331 14.1597 9.75868 14.2926 9.62584C14.4254 9.49301 14.5 9.31284 14.5 9.12498C14.5 8.93712 14.4254 8.75695 14.2926 8.62411C14.1597 8.49127 13.9795 8.41664 13.7917 8.41664H9.54169C8.9781 8.41664 8.4376 8.64053 8.03909 9.03904C7.64057 9.43756 7.41669 9.97806 7.41669 10.5416V20.4583C7.41669 21.0219 7.64057 21.5624 8.03909 21.9609C8.4376 22.3594 8.9781 22.5833 9.54169 22.5833H19.4584C20.0219 22.5833 20.5624 22.3594 20.961 21.9609C21.3595 21.5624 21.5834 21.0219 21.5834 20.4583V16.2083C21.5834 16.0204 21.5087 15.8403 21.3759 15.7074C21.243 15.5746 21.0629 15.5 20.875 15.5ZM10.25 16.0383V19.0416C10.25 19.2295 10.3246 19.4097 10.4575 19.5425C10.5903 19.6753 10.7705 19.75 10.9584 19.75H13.9617C14.0549 19.7505 14.1473 19.7326 14.2336 19.6974C14.3199 19.6621 14.3984 19.6102 14.4646 19.5446L19.3663 14.6358L21.3779 12.6666C21.4443 12.6008 21.497 12.5225 21.533 12.4361C21.5689 12.3498 21.5875 12.2572 21.5875 12.1637C21.5875 12.0702 21.5689 11.9776 21.533 11.8913C21.497 11.805 21.4443 11.7267 21.3779 11.6608L18.3746 8.62206C18.3088 8.55567 18.2304 8.50297 18.1441 8.46701C18.0578 8.43105 17.9652 8.41254 17.8717 8.41254C17.7782 8.41254 17.6856 8.43105 17.5993 8.46701C17.513 8.50297 17.4346 8.55567 17.3688 8.62206L15.3713 10.6266L10.4554 15.5354C10.3898 15.6016 10.3378 15.6801 10.3026 15.7664C10.2673 15.8527 10.2495 15.9451 10.25 16.0383V16.0383ZM17.8717 10.1237L19.8763 12.1283L18.8704 13.1341L16.8659 11.1296L17.8717 10.1237ZM11.6667 16.3287L15.8671 12.1283L17.8717 14.1329L13.6713 18.3333H11.6667V16.3287Z" fill="#0062E5"/>
</svg>
