<svg width="22" height="22" viewBox="0 0 22 22" fill="none" xmlns="http://www.w3.org/2000/svg">
<circle cx="11.5" cy="11.5" r="8" fill="#F5F5FF"/>
<path d="M10.3788 13.8788C10.3412 13.9204 10.3061 13.9642 10.2738 14.01C10.2407 14.0588 10.2142 14.1118 10.195 14.1675C10.1698 14.2171 10.1521 14.2702 10.1425 14.325C10.1382 14.3833 10.1382 14.4418 10.1425 14.5C10.1396 14.6148 10.1636 14.7287 10.2125 14.8325C10.2518 14.9411 10.3145 15.0397 10.3962 15.1214C10.4778 15.203 10.5765 15.2657 10.685 15.305C10.7898 15.3513 10.903 15.3752 11.0175 15.3752C11.132 15.3752 11.2453 15.3513 11.35 15.305C11.4586 15.2657 11.5572 15.203 11.6389 15.1214C11.7205 15.0397 11.7832 14.9411 11.8225 14.8325C11.8614 14.7261 11.8792 14.6132 11.875 14.5C11.8757 14.3849 11.8536 14.2707 11.8101 14.1641C11.7665 14.0575 11.7024 13.9605 11.6213 13.8788C11.5399 13.7968 11.4432 13.7317 11.3365 13.6873C11.2299 13.6428 11.1155 13.62 11 13.62C10.8845 13.62 10.7702 13.6428 10.6635 13.6873C10.5569 13.7317 10.4601 13.7968 10.3788 13.8788ZM11 2.25004C9.26945 2.25004 7.57772 2.76322 6.13879 3.72468C4.69986 4.68614 3.57836 6.0527 2.91609 7.65156C2.25382 9.25041 2.08054 11.0097 2.41816 12.7071C2.75578 14.4044 3.58914 15.9635 4.81285 17.1872C6.03656 18.4109 7.59566 19.2443 9.29299 19.5819C10.9903 19.9195 12.7497 19.7462 14.3485 19.084C15.9474 18.4217 17.3139 17.3002 18.2754 15.8613C19.2369 14.4223 19.75 12.7306 19.75 11C19.75 9.85097 19.5237 8.71316 19.084 7.65156C18.6443 6.58996 17.9997 5.62537 17.1872 4.81285C16.3747 4.00034 15.4101 3.35582 14.3485 2.91609C13.2869 2.47636 12.1491 2.25004 11 2.25004ZM11 18C9.61556 18 8.26219 17.5895 7.11104 16.8203C5.9599 16.0512 5.06269 14.9579 4.53288 13.6788C4.00306 12.3997 3.86444 10.9923 4.13454 9.6344C4.40463 8.27654 5.07132 7.02926 6.05029 6.05029C7.02925 5.07132 8.27654 4.40464 9.6344 4.13454C10.9923 3.86444 12.3997 4.00307 13.6788 4.53288C14.9579 5.06269 16.0511 5.9599 16.8203 7.11105C17.5895 8.26219 18 9.61557 18 11C18 12.8566 17.2625 14.637 15.9498 15.9498C14.637 17.2625 12.8565 18 11 18ZM11 6.62504C10.539 6.62474 10.086 6.74589 9.68658 6.9763C9.28721 7.20671 8.95557 7.53824 8.72503 7.93754C8.66172 8.03713 8.61921 8.1485 8.60006 8.26494C8.58091 8.38139 8.58551 8.5005 8.61358 8.61513C8.64166 8.72975 8.69263 8.83751 8.76343 8.93192C8.83423 9.02633 8.9234 9.10544 9.02557 9.1645C9.12774 9.22356 9.2408 9.26134 9.35795 9.27557C9.4751 9.2898 9.59392 9.28018 9.70725 9.2473C9.82059 9.21442 9.92611 9.15896 10.0175 9.08424C10.1088 9.00952 10.1841 8.9171 10.2388 8.81254C10.3159 8.67901 10.4269 8.56822 10.5606 8.49139C10.6942 8.41457 10.8458 8.37442 11 8.37504C11.2321 8.37504 11.4547 8.46722 11.6188 8.63132C11.7828 8.79541 11.875 9.01797 11.875 9.25004C11.875 9.4821 11.7828 9.70466 11.6188 9.86875C11.4547 10.0328 11.2321 10.125 11 10.125C10.768 10.125 10.5454 10.2172 10.3813 10.3813C10.2172 10.5454 10.125 10.768 10.125 11V11.875C10.125 12.1071 10.2172 12.3297 10.3813 12.4938C10.5454 12.6578 10.768 12.75 11 12.75C11.2321 12.75 11.4547 12.6578 11.6188 12.4938C11.7828 12.3297 11.875 12.1071 11.875 11.875V11.7175C12.4537 11.5076 12.9402 11.1009 13.2495 10.5685C13.5587 10.0362 13.671 9.41217 13.5668 8.80544C13.4625 8.19871 13.1483 7.64793 12.6792 7.24936C12.21 6.8508 11.6156 6.62981 11 6.62504Z" fill="#A3AED0"/>
</svg>
