<svg width="24" height="25" viewBox="0 0 24 25" fill="none" xmlns="http://www.w3.org/2000/svg">
<g id="User Interface / Backup">
<path id="Vector" d="M12 2.78906C9.43639 2.79637 6.97349 3.78798 5.12 5.55906V3.78906C5.12 3.52385 5.01464 3.26949 4.82711 3.08196C4.63957 2.89442 4.38522 2.78906 4.12 2.78906C3.85478 2.78906 3.60043 2.89442 3.41289 3.08196C3.22536 3.26949 3.12 3.52385 3.12 3.78906V8.28906C3.12 8.55428 3.22536 8.80863 3.41289 8.99617C3.60043 9.18371 3.85478 9.28906 4.12 9.28906H8.62C8.88522 9.28906 9.13957 9.18371 9.32711 8.99617C9.51464 8.80863 9.62 8.55428 9.62 8.28906C9.62 8.02385 9.51464 7.76949 9.32711 7.58196C9.13957 7.39442 8.88522 7.28906 8.62 7.28906H6.22C7.50578 5.94542 9.21951 5.09172 11.0665 4.87473C12.9136 4.65775 14.7785 5.09104 16.3407 6.10011C17.9028 7.10918 19.0646 8.63098 19.6263 10.4039C20.188 12.1767 20.1145 14.0899 19.4184 15.8145C18.7223 17.539 17.4472 18.9672 15.8122 19.8534C14.1772 20.7396 12.2845 21.0285 10.4596 20.6704C8.63463 20.3123 6.99147 19.3296 5.81259 17.8913C4.63372 16.4529 3.99279 14.6488 4 12.7891C4 12.5238 3.89464 12.2695 3.70711 12.082C3.51957 11.8944 3.26522 11.7891 3 11.7891C2.73478 11.7891 2.48043 11.8944 2.29289 12.082C2.10536 12.2695 2 12.5238 2 12.7891C2 14.7669 2.58649 16.7003 3.6853 18.3448C4.78412 19.9893 6.3459 21.271 8.17317 22.0279C10.0004 22.7847 12.0111 22.9828 13.9509 22.5969C15.8907 22.2111 17.6725 21.2587 19.0711 19.8601C20.4696 18.4616 21.422 16.6798 21.8079 14.74C22.1937 12.8002 21.9957 10.7895 21.2388 8.96223C20.4819 7.13497 19.2002 5.57318 17.5557 4.47437C15.9112 3.37555 13.9778 2.78906 12 2.78906ZM12 8.78906C11.7348 8.78906 11.4804 8.89442 11.2929 9.08196C11.1054 9.26949 11 9.52385 11 9.78906V12.7891C11 13.0543 11.1054 13.3086 11.2929 13.4962C11.4804 13.6837 11.7348 13.7891 12 13.7891H14C14.2652 13.7891 14.5196 13.6837 14.7071 13.4962C14.8946 13.3086 15 13.0543 15 12.7891C15 12.5238 14.8946 12.2695 14.7071 12.082C14.5196 11.8944 14.2652 11.7891 14 11.7891H13V9.78906C13 9.52385 12.8946 9.26949 12.7071 9.08196C12.5196 8.89442 12.2652 8.78906 12 8.78906Z" fill="#A3AED0"/>
</g>
</svg>
