<svg width="24" height="25" viewBox="0 0 24 25" fill="none" xmlns="http://www.w3.org/2000/svg">
<g id="Multimedia / clapper board">
<path id="Vector" d="M19 2.28906H5C4.20435 2.28906 3.44129 2.60513 2.87868 3.16774C2.31607 3.73035 2 4.49341 2 5.28906V19.2891C2 20.0847 2.31607 20.8478 2.87868 21.4104C3.44129 21.973 4.20435 22.2891 5 22.2891H19C19.7956 22.2891 20.5587 21.973 21.1213 21.4104C21.6839 20.8478 22 20.0847 22 19.2891V5.28906C22 4.49341 21.6839 3.73035 21.1213 3.16774C20.5587 2.60513 19.7956 2.28906 19 2.28906ZM16.09 4.28906L12.09 8.28906H7.91L11.91 4.28906H16.09ZM4 5.28906C4 5.02385 4.10536 4.76949 4.29289 4.58196C4.48043 4.39442 4.73478 4.28906 5 4.28906H9.09L5.09 8.28906H4V5.28906ZM20 19.2891C20 19.5543 19.8946 19.8086 19.7071 19.9962C19.5196 20.1837 19.2652 20.2891 19 20.2891H5C4.73478 20.2891 4.48043 20.1837 4.29289 19.9962C4.10536 19.8086 4 19.5543 4 19.2891V10.2891H20V19.2891ZM20 8.28906H14.91L18.91 4.28906H19C19.2652 4.28906 19.5196 4.39442 19.7071 4.58196C19.8946 4.76949 20 5.02385 20 5.28906V8.28906Z" fill="#A3AED0"/>
</g>
</svg>
