<svg width="24" height="25" viewBox="0 0 24 25" fill="none" xmlns="http://www.w3.org/2000/svg">
<g id="Solid / hospital symbol">
<path id="Vector" d="M12 2.28906C6.5 2.28906 2 6.78906 2 12.2891C2 17.7891 6.5 22.2891 12 22.2891C17.5 22.2891 22 17.7891 22 12.2891C22 6.78906 17.5 2.28906 12 2.28906ZM16 16.2891C16 16.8891 15.6 17.2891 15 17.2891C14.4 17.2891 14 16.8891 14 16.2891V13.2891H10V16.2891C10 16.8891 9.6 17.2891 9 17.2891C8.4 17.2891 8 16.8891 8 16.2891V8.28906C8 7.68906 8.4 7.28906 9 7.28906C9.6 7.28906 10 7.68906 10 8.28906V11.2891H14V8.28906C14 7.68906 14.4 7.28906 15 7.28906C15.6 7.28906 16 7.68906 16 8.28906V16.2891Z" fill="#A3AED0"/>
</g>
</svg>
