<svg width="24" height="25" viewBox="0 0 24 25" fill="none" xmlns="http://www.w3.org/2000/svg">
<g id="Communication / outgoing call">
<path id="Vector" d="M19.44 13.2891C19.22 13.2891 18.99 13.2191 18.77 13.1691C18.3245 13.0709 17.8866 12.9405 17.46 12.7791C16.9961 12.6103 16.4861 12.619 16.0283 12.8037C15.5704 12.9883 15.1971 13.3357 14.98 13.7791L14.76 14.2291C13.786 13.6872 12.891 13.0143 12.1 12.2291C11.3147 11.4381 10.6418 10.543 10.1 9.56905L10.52 9.28905C10.9633 9.07197 11.3108 8.69858 11.4954 8.24074C11.68 7.7829 11.6888 7.27296 11.52 6.80905C11.3612 6.38147 11.2309 5.94385 11.13 5.49905C11.08 5.27905 11.04 5.04905 11.01 4.81905C10.8885 4.11467 10.5196 3.47679 9.9696 3.02029C9.4196 2.56379 8.72467 2.31866 8.00998 2.32905H5.00998C4.57901 2.32501 4.15223 2.41387 3.75869 2.58958C3.36515 2.7653 3.01409 3.02375 2.72941 3.34733C2.44473 3.67092 2.23311 4.05205 2.10897 4.46477C1.98482 4.87749 1.95106 5.31211 2.00998 5.73905C2.54272 9.92843 4.45601 13.8209 7.44763 16.8017C10.4393 19.7824 14.3387 21.6816 18.53 22.1991H18.91C19.6474 22.2001 20.3594 21.9296 20.91 21.4391C21.2263 21.1561 21.4791 20.8092 21.6514 20.4214C21.8238 20.0335 21.9119 19.6135 21.91 19.1891V16.1891C21.8977 15.4944 21.6448 14.8256 21.1943 14.2967C20.7439 13.7678 20.1238 13.4117 19.44 13.2891ZM19.94 19.2891C19.9398 19.431 19.9094 19.5714 19.8508 19.7007C19.7921 19.83 19.7066 19.9453 19.6 20.0391C19.4882 20.1355 19.3576 20.2076 19.2164 20.2506C19.0752 20.2937 18.9265 20.3068 18.78 20.2891C15.0349 19.8089 11.5562 18.0955 8.89269 15.4193C6.22917 12.7431 4.53239 9.25639 4.06998 5.50905C4.05406 5.36257 4.06801 5.21438 4.11098 5.07344C4.15395 4.9325 4.22505 4.80174 4.31998 4.68905C4.41369 4.58238 4.52904 4.49689 4.65836 4.43827C4.78767 4.37965 4.92799 4.34923 5.06998 4.34905H8.06998C8.30253 4.34388 8.5296 4.41993 8.71212 4.56412C8.89464 4.70831 9.02119 4.91162 9.06998 5.13905C9.10998 5.41239 9.15998 5.68239 9.21998 5.94905C9.3355 6.4762 9.48924 6.99423 9.67998 7.49905L8.27998 8.14905C8.16028 8.20397 8.0526 8.282 7.96314 8.37865C7.87367 8.4753 7.80418 8.58867 7.75865 8.71225C7.71312 8.83583 7.69245 8.96718 7.69783 9.09877C7.7032 9.23037 7.73452 9.3596 7.78998 9.47905C9.22918 12.5618 11.7072 15.0399 14.79 16.4791C15.0334 16.5791 15.3065 16.5791 15.55 16.4791C15.6747 16.4344 15.7893 16.3655 15.8871 16.2762C15.985 16.187 16.0641 16.0792 16.12 15.9591L16.74 14.5591C17.2569 14.7439 17.7846 14.8975 18.32 15.0191C18.5866 15.0791 18.8566 15.1291 19.13 15.1691C19.3574 15.2178 19.5607 15.3444 19.7049 15.5269C19.8491 15.7094 19.9252 15.9365 19.92 16.1691L19.94 19.2891ZM21.86 2.96905C21.7585 2.7247 21.5643 2.53053 21.32 2.42905C21.1998 2.37781 21.0707 2.35063 20.94 2.34905H16.94C16.6748 2.34905 16.4204 2.45441 16.2329 2.64195C16.0453 2.82948 15.94 3.08384 15.94 3.34905C15.94 3.61427 16.0453 3.86862 16.2329 4.05616C16.4204 4.2437 16.6748 4.34905 16.94 4.34905H18.52L15.23 7.64905C15.0437 7.83642 14.9392 8.08987 14.9392 8.35405C14.9392 8.61824 15.0437 8.87169 15.23 9.05905C15.4173 9.2453 15.6708 9.34985 15.935 9.34985C16.1992 9.34985 16.4526 9.2453 16.64 9.05905L19.94 5.76905V7.34905C19.94 7.61427 20.0453 7.86862 20.2329 8.05616C20.4204 8.2437 20.6748 8.34905 20.94 8.34905C21.2052 8.34905 21.4595 8.2437 21.6471 8.05616C21.8346 7.86862 21.94 7.61427 21.94 7.34905V3.34905C21.9384 3.21838 21.9112 3.08928 21.86 2.96905Z" fill="#A3AED0"/>
</g>
</svg>
